# xmcd
#
# Track frame offsets:
#	150
#	19102
#	36964
#	53426
#	69553
#	83703
#	110419
#	124878
#	142548
#	156410
#	181619
#	202205
#	215651
#	235339
#	249579
#
# Disc length: 3535 seconds
#
# Revision: 1
# Processed by: cddbd v1.5.2PL0 Copyright (c) Steve Scherf et al.
# Submitted via: audiograbber 1.83.01
#
DISCID=cd0dcd0f
DTITLE=Reckless Kelly - Bulletproof Live
DYEAR=2019
DGENRE=Country
TTITLE0=Ragged as the Road (Live)
TTITLE1=You Don't Have to Stay Forever (Live)
TTITLE2=Love in Her Eyes (Live)
TTITLE3=Passin' Through (Live)
TTITLE4=I Never Had a Chance (Live)
TTITLE5=One False Move (Live)
TTITLE6=A Guy Like Me (Live)
TTITLE7=American Blood (Live)
TTITLE8=How Was California? (Live)
TTITLE9=California Blues (Blue Yodel #4) (Live)
TTITLE10=Mirage (Live)
TTITLE11=Don't Say Goodbye (Live)
TTITLE12=God Forsaken Town (Live)
TTITLE13=Wandering Eye (Live)
TTITLE14=Bulletproof (Live)
EXTD=
EXTT0=
EXTT1=
EXTT2=
EXTT3=
EXTT4=
EXTT5=
EXTT6=
EXTT7=
EXTT8=
EXTT9=
EXTT10=
EXTT11=
EXTT12=
EXTT13=
EXTT14=
PLAYORDER=
